<svg xmlns="http://www.w3.org/2000/svg" viewBox="0 0 20 20" fill="currentColor">
  <g clip-path="url(#a)">
    <path d="M17.917 3.333H16.11v1.111h1.667v12.223H2.222V4.444H3.89v-1.11H2.083a.989.989 0 0 0-.972 1.005v12.433a.988.988 0 0 0 .972 1.006h15.834a.99.99 0 0 0 .972-1.006V4.34a.988.988 0 0 0-.972-1.006Z"/>
    <path d="M4.444 7.778h1.111v1.11h-1.11v-1.11Zm3.334 0h1.11v1.11h-1.11v-1.11Zm3.333 0h1.111v1.11h-1.11v-1.11Zm3.333 0h1.111v1.11h-1.11v-1.11Zm-10 2.778h1.111v1.11h-1.11v-1.11Zm3.334 0h1.11v1.11h-1.11v-1.11Zm3.333 0h1.111v1.11h-1.11v-1.11Zm3.333 0h1.111v1.11h-1.11v-1.11Zm-10 2.777h1.111v1.111h-1.11v-1.11Zm3.334 0h1.11v1.111h-1.11v-1.11Zm3.333 0h1.111v1.111h-1.11v-1.11Zm3.333 0h1.111v1.111h-1.11v-1.11ZM5.556 5.556A.556.556 0 0 0 6.11 5V1.667a.556.556 0 1 0-1.111 0V5a.556.556 0 0 0 .556.556Zm8.888 0A.556.556 0 0 0 15 5V1.667a.555.555 0 1 0-1.111 0V5a.555.555 0 0 0 .556.556ZM7.222 3.333h5.556v1.111H7.222v-1.11Z"/>
  </g>
  <defs>
    <clipPath id="a">
      <path d="M0 0h20v20H0z"/>
    </clipPath>
  </defs>
</svg>