<svg xmlns="http://www.w3.org/2000/svg" viewBox="0 0 18 14" fill="currentColor">
  <path d="M17.402 6.496C15.551 2.596 12.752.633 9 .633 5.246.633 2.45 2.596.598 6.498a1.178 1.178 0 0 0 0 1.006c1.851 3.9 4.65 5.863 8.402 5.863 3.754 0 6.55-1.963 8.402-5.865a1.18 1.18 0 0 0 0-1.006ZM9 11.961c-3.15 0-5.457-1.598-7.084-4.961C3.543 3.637 5.85 2.04 9 2.04c3.15 0 5.457 1.597 7.084 4.96-1.625 3.363-3.932 4.96-7.084 4.96Zm-.078-8.399a3.438 3.438 0 1 0 0 6.876 3.438 3.438 0 0 0 0-6.876Zm0 5.626A2.186 2.186 0 0 1 6.734 7a2.187 2.187 0 1 1 4.375 0 2.186 2.186 0 0 1-2.187 2.188Z"/>
</svg>