<svg xmlns="http://www.w3.org/2000/svg" width="22" height="22" fill="none">
  <path stroke="currentColor" stroke-linecap="round" stroke-linejoin="round" stroke-width="2" d="M10.075 1.633c.32-.844 1.53-.844 1.852 0l2.07 5.734a.99.99 0 0 0 .926.633h5.087c.94 0 1.35 1.17.61 1.743L17 13a.968.968 0 0 0-.321 1.092L18 19.695c.322.9-.72 1.673-1.508 1.119l-4.917-3.12a1 1 0 0 0-1.15 0l-4.917 3.12c-.787.554-1.83-.22-1.508-1.119l1.322-5.603A.968.968 0 0 0 5 13L1.38 9.743C.64 9.17 1.053 8 1.99 8h5.087a.989.989 0 0 0 .926-.633l2.07-5.734h0Z"/>
</svg>